<?xml version="1.0" encoding="UTF-8" standalone="no"?>
<!DOCTYPE svg PUBLIC "-//W3C//DTD SVG 1.1//EN"
 "http://www.w3.org/Graphics/SVG/1.1/DTD/svg11.dtd">
<!-- Generated by graphviz version 3.0.0 (0)
 -->
<!-- Pages: 1 -->
<svg width="1749pt" height="409pt"
 viewBox="0.00 0.00 1748.79 409.00" xmlns="http://www.w3.org/2000/svg" xmlns:xlink="http://www.w3.org/1999/xlink">
<g id="graph0" class="graph" transform="scale(1 1) rotate(0) translate(4 405)">
<polygon fill="white" stroke="transparent" points="-4,4 -4,-405 1744.79,-405 1744.79,4 -4,4"/>
<!-- 0 -->
<g id="node1" class="node">
<title>0</title>
<ellipse fill="none" stroke="black" cx="834.79" cy="-383" rx="202.26" ry="18"/>
<text text-anchor="middle" x="834.79" y="-379.3" font-family="Times,serif" font-size="14.00">Heart &#45; Atrial Appendage_GTExTPM, value&gt;47.5166</text>
</g>
<!-- 1 -->
<g id="node2" class="node">
<title>1</title>
<ellipse fill="none" stroke="black" cx="668.79" cy="-296" rx="94.48" ry="18"/>
<text text-anchor="middle" x="668.79" y="-292.3" font-family="Times,serif" font-size="14.00">HIPred, value&gt;0.65543</text>
</g>
<!-- 0&#45;&gt;1 -->
<g id="edge1" class="edge">
<title>0&#45;&gt;1</title>
<path fill="none" stroke="black" d="M801.99,-365.21C775.31,-351.54 737.53,-332.2 709.02,-317.6"/>
<polygon fill="black" stroke="black" points="710.61,-314.48 700.11,-313.04 707.42,-320.71 710.61,-314.48"/>
<text text-anchor="middle" x="770.29" y="-335.8" font-family="Times,serif" font-size="14.00">No</text>
</g>
<!-- 2 -->
<g id="node3" class="node">
<title>2</title>
<ellipse fill="none" stroke="black" cx="1041.79" cy="-296" rx="94.48" ry="18"/>
<text text-anchor="middle" x="1041.79" y="-292.3" font-family="Times,serif" font-size="14.00">HIPred, value&gt;0.65543</text>
</g>
<!-- 0&#45;&gt;2 -->
<g id="edge2" class="edge">
<title>0&#45;&gt;2</title>
<path fill="none" stroke="black" d="M875.69,-365.21C909.87,-351.17 958.63,-331.15 994.49,-316.42"/>
<polygon fill="black" stroke="black" points="995.85,-319.65 1003.77,-312.61 993.19,-313.17 995.85,-319.65"/>
<text text-anchor="middle" x="961.29" y="-335.8" font-family="Times,serif" font-size="14.00">Yes</text>
</g>
<!-- 3 -->
<g id="node4" class="node">
<title>3</title>
<ellipse fill="none" stroke="black" cx="314.79" cy="-209" rx="157.07" ry="18"/>
<text text-anchor="middle" x="314.79" y="-205.3" font-family="Times,serif" font-size="14.00">mousescore_Exomiser, value&gt;0.0453431</text>
</g>
<!-- 1&#45;&gt;3 -->
<g id="edge3" class="edge">
<title>1&#45;&gt;3</title>
<path fill="none" stroke="black" d="M612.7,-281.53C552.34,-267.04 456.04,-243.92 389.35,-227.9"/>
<polygon fill="black" stroke="black" points="389.86,-224.43 379.32,-225.49 388.22,-231.23 389.86,-224.43"/>
<text text-anchor="middle" x="522.29" y="-248.8" font-family="Times,serif" font-size="14.00">No</text>
</g>
<!-- 4 -->
<g id="node5" class="node">
<title>4</title>
<ellipse fill="none" stroke="black" cx="668.79" cy="-209" rx="157.07" ry="18"/>
<text text-anchor="middle" x="668.79" y="-205.3" font-family="Times,serif" font-size="14.00">mousescore_Exomiser, value&gt;0.0453431</text>
</g>
<!-- 1&#45;&gt;4 -->
<g id="edge4" class="edge">
<title>1&#45;&gt;4</title>
<path fill="none" stroke="black" d="M668.79,-277.8C668.79,-266.16 668.79,-250.55 668.79,-237.24"/>
<polygon fill="black" stroke="black" points="672.29,-237.18 668.79,-227.18 665.29,-237.18 672.29,-237.18"/>
<text text-anchor="middle" x="679.29" y="-248.8" font-family="Times,serif" font-size="14.00">Yes</text>
</g>
<!-- 5 -->
<g id="node6" class="node">
<title>5</title>
<ellipse fill="none" stroke="black" cx="1041.79" cy="-209" rx="157.07" ry="18"/>
<text text-anchor="middle" x="1041.79" y="-205.3" font-family="Times,serif" font-size="14.00">mousescore_Exomiser, value&gt;0.0453431</text>
</g>
<!-- 2&#45;&gt;5 -->
<g id="edge5" class="edge">
<title>2&#45;&gt;5</title>
<path fill="none" stroke="black" d="M1041.79,-277.8C1041.79,-266.16 1041.79,-250.55 1041.79,-237.24"/>
<polygon fill="black" stroke="black" points="1045.29,-237.18 1041.79,-227.18 1038.29,-237.18 1045.29,-237.18"/>
<text text-anchor="middle" x="1050.29" y="-248.8" font-family="Times,serif" font-size="14.00">No</text>
</g>
<!-- 6 -->
<g id="node7" class="node">
<title>6</title>
<ellipse fill="none" stroke="black" cx="1394.79" cy="-209" rx="157.07" ry="18"/>
<text text-anchor="middle" x="1394.79" y="-205.3" font-family="Times,serif" font-size="14.00">mousescore_Exomiser, value&gt;0.0453431</text>
</g>
<!-- 2&#45;&gt;6 -->
<g id="edge6" class="edge">
<title>2&#45;&gt;6</title>
<path fill="none" stroke="black" d="M1098.12,-281.44C1158.38,-266.93 1254.24,-243.84 1320.62,-227.86"/>
<polygon fill="black" stroke="black" points="1321.69,-231.2 1330.6,-225.46 1320.06,-224.4 1321.69,-231.2"/>
<text text-anchor="middle" x="1250.29" y="-248.8" font-family="Times,serif" font-size="14.00">Yes</text>
</g>
<!-- 7 -->
<g id="node8" class="node">
<title>7</title>
<ellipse fill="none" stroke="black" cx="98.79" cy="-122" rx="98.58" ry="18"/>
<text text-anchor="middle" x="98.79" y="-118.3" font-family="Times,serif" font-size="14.00">HIPred, value&gt;0.705049</text>
</g>
<!-- 3&#45;&gt;7 -->
<g id="edge7" class="edge">
<title>3&#45;&gt;7</title>
<path fill="none" stroke="black" d="M273.14,-191.61C237.47,-177.57 186.03,-157.33 148.26,-142.47"/>
<polygon fill="black" stroke="black" points="149.07,-139.03 138.49,-138.62 146.51,-145.54 149.07,-139.03"/>
<text text-anchor="middle" x="228.29" y="-161.8" font-family="Times,serif" font-size="14.00">No</text>
</g>
<!-- 8 -->
<g id="node9" class="node">
<title>8</title>
<ellipse fill="none" stroke="black" cx="314.79" cy="-122" rx="98.58" ry="18"/>
<text text-anchor="middle" x="314.79" y="-118.3" font-family="Times,serif" font-size="14.00">HIPred, value&gt;0.705049</text>
</g>
<!-- 3&#45;&gt;8 -->
<g id="edge8" class="edge">
<title>3&#45;&gt;8</title>
<path fill="none" stroke="black" d="M314.79,-190.8C314.79,-179.16 314.79,-163.55 314.79,-150.24"/>
<polygon fill="black" stroke="black" points="318.29,-150.18 314.79,-140.18 311.29,-150.18 318.29,-150.18"/>
<text text-anchor="middle" x="325.29" y="-161.8" font-family="Times,serif" font-size="14.00">Yes</text>
</g>
<!-- 9 -->
<g id="node10" class="node">
<title>9</title>
<ellipse fill="none" stroke="black" cx="530.79" cy="-122" rx="98.58" ry="18"/>
<text text-anchor="middle" x="530.79" y="-118.3" font-family="Times,serif" font-size="14.00">HIPred, value&gt;0.705049</text>
</g>
<!-- 4&#45;&gt;9 -->
<g id="edge9" class="edge">
<title>4&#45;&gt;9</title>
<path fill="none" stroke="black" d="M641.53,-191.21C619.93,-177.91 589.61,-159.23 566.15,-144.78"/>
<polygon fill="black" stroke="black" points="567.88,-141.73 557.53,-139.47 564.21,-147.69 567.88,-141.73"/>
<text text-anchor="middle" x="617.29" y="-161.8" font-family="Times,serif" font-size="14.00">No</text>
</g>
<!-- 10 -->
<g id="node11" class="node">
<title>10</title>
<ellipse fill="none" stroke="black" cx="746.79" cy="-122" rx="98.58" ry="18"/>
<text text-anchor="middle" x="746.79" y="-118.3" font-family="Times,serif" font-size="14.00">HIPred, value&gt;0.705049</text>
</g>
<!-- 4&#45;&gt;10 -->
<g id="edge10" class="edge">
<title>4&#45;&gt;10</title>
<path fill="none" stroke="black" d="M684.58,-190.8C695.96,-178.39 711.5,-161.46 724.2,-147.62"/>
<polygon fill="black" stroke="black" points="727.11,-149.62 731.3,-139.89 721.96,-144.89 727.11,-149.62"/>
<text text-anchor="middle" x="723.29" y="-161.8" font-family="Times,serif" font-size="14.00">Yes</text>
</g>
<!-- 11 -->
<g id="node12" class="node">
<title>11</title>
<ellipse fill="none" stroke="black" cx="962.79" cy="-122" rx="98.58" ry="18"/>
<text text-anchor="middle" x="962.79" y="-118.3" font-family="Times,serif" font-size="14.00">HIPred, value&gt;0.705049</text>
</g>
<!-- 5&#45;&gt;11 -->
<g id="edge11" class="edge">
<title>5&#45;&gt;11</title>
<path fill="none" stroke="black" d="M1025.8,-190.8C1014.16,-178.27 998.24,-161.14 985.31,-147.23"/>
<polygon fill="black" stroke="black" points="987.86,-144.83 978.48,-139.89 982.73,-149.59 987.86,-144.83"/>
<text text-anchor="middle" x="1016.29" y="-161.8" font-family="Times,serif" font-size="14.00">No</text>
</g>
<!-- 12 -->
<g id="node13" class="node">
<title>12</title>
<ellipse fill="none" stroke="black" cx="1178.79" cy="-122" rx="98.58" ry="18"/>
<text text-anchor="middle" x="1178.79" y="-118.3" font-family="Times,serif" font-size="14.00">HIPred, value&gt;0.705049</text>
</g>
<!-- 5&#45;&gt;12 -->
<g id="edge12" class="edge">
<title>5&#45;&gt;12</title>
<path fill="none" stroke="black" d="M1068.86,-191.21C1090.29,-177.91 1120.4,-159.23 1143.69,-144.78"/>
<polygon fill="black" stroke="black" points="1145.59,-147.72 1152.25,-139.47 1141.9,-141.77 1145.59,-147.72"/>
<text text-anchor="middle" x="1129.29" y="-161.8" font-family="Times,serif" font-size="14.00">Yes</text>
</g>
<!-- 13 -->
<g id="node14" class="node">
<title>13</title>
<ellipse fill="none" stroke="black" cx="1394.79" cy="-122" rx="98.58" ry="18"/>
<text text-anchor="middle" x="1394.79" y="-118.3" font-family="Times,serif" font-size="14.00">HIPred, value&gt;0.705049</text>
</g>
<!-- 6&#45;&gt;13 -->
<g id="edge13" class="edge">
<title>6&#45;&gt;13</title>
<path fill="none" stroke="black" d="M1394.79,-190.8C1394.79,-179.16 1394.79,-163.55 1394.79,-150.24"/>
<polygon fill="black" stroke="black" points="1398.29,-150.18 1394.79,-140.18 1391.29,-150.18 1398.29,-150.18"/>
<text text-anchor="middle" x="1403.29" y="-161.8" font-family="Times,serif" font-size="14.00">No</text>
</g>
<!-- 14 -->
<g id="node15" class="node">
<title>14</title>
<ellipse fill="none" stroke="black" cx="1610.79" cy="-122" rx="98.58" ry="18"/>
<text text-anchor="middle" x="1610.79" y="-118.3" font-family="Times,serif" font-size="14.00">HIPred, value&gt;0.705049</text>
</g>
<!-- 6&#45;&gt;14 -->
<g id="edge14" class="edge">
<title>6&#45;&gt;14</title>
<path fill="none" stroke="black" d="M1436.44,-191.61C1472.11,-177.57 1523.56,-157.33 1561.32,-142.47"/>
<polygon fill="black" stroke="black" points="1563.07,-145.54 1571.09,-138.62 1560.51,-139.03 1563.07,-145.54"/>
<text text-anchor="middle" x="1526.29" y="-161.8" font-family="Times,serif" font-size="14.00">Yes</text>
</g>
<!-- 15 -->
<g id="node16" class="node">
<title>15</title>
<polygon fill="none" stroke="red" points="139.79,-53 55.79,-53 55.79,0 139.79,0 139.79,-53"/>
<text text-anchor="middle" x="97.79" y="-37.8" font-family="Times,serif" font-size="14.00">val = &#45;0.089</text>
<text text-anchor="middle" x="97.79" y="-22.8" font-family="Times,serif" font-size="14.00">val = 0.051</text>
<text text-anchor="middle" x="97.79" y="-7.8" font-family="Times,serif" font-size="14.00">val = 0.038</text>
</g>
<!-- 7&#45;&gt;15 -->
<g id="edge15" class="edge">
<title>7&#45;&gt;15</title>
<path fill="none" stroke="black" d="M98.61,-103.85C98.49,-92.51 98.32,-77.22 98.17,-63.3"/>
<polygon fill="black" stroke="black" points="101.67,-62.97 98.06,-53.01 94.67,-63.04 101.67,-62.97"/>
<text text-anchor="middle" x="107.29" y="-74.8" font-family="Times,serif" font-size="14.00">No</text>
</g>
<!-- 16 -->
<g id="node17" class="node">
<title>16</title>
<polygon fill="none" stroke="red" points="237.79,-53 157.79,-53 157.79,0 237.79,0 237.79,-53"/>
<text text-anchor="middle" x="197.79" y="-37.8" font-family="Times,serif" font-size="14.00">val = 0.000</text>
<text text-anchor="middle" x="197.79" y="-22.8" font-family="Times,serif" font-size="14.00">val = 0.000</text>
<text text-anchor="middle" x="197.79" y="-7.8" font-family="Times,serif" font-size="14.00">val = 0.000</text>
</g>
<!-- 7&#45;&gt;16 -->
<g id="edge16" class="edge">
<title>7&#45;&gt;16</title>
<path fill="none" stroke="black" d="M116.49,-104.28C129.4,-92.1 147.3,-75.19 163.02,-60.34"/>
<polygon fill="black" stroke="black" points="165.67,-62.65 170.54,-53.24 160.86,-57.56 165.67,-62.65"/>
<text text-anchor="middle" x="162.29" y="-74.8" font-family="Times,serif" font-size="14.00">Yes</text>
</g>
<!-- 17 -->
<g id="node18" class="node">
<title>17</title>
<polygon fill="none" stroke="red" points="347.79,-53 263.79,-53 263.79,0 347.79,0 347.79,-53"/>
<text text-anchor="middle" x="305.79" y="-37.8" font-family="Times,serif" font-size="14.00">val = 0.037</text>
<text text-anchor="middle" x="305.79" y="-22.8" font-family="Times,serif" font-size="14.00">val = 0.059</text>
<text text-anchor="middle" x="305.79" y="-7.8" font-family="Times,serif" font-size="14.00">val = &#45;0.096</text>
</g>
<!-- 8&#45;&gt;17 -->
<g id="edge17" class="edge">
<title>8&#45;&gt;17</title>
<path fill="none" stroke="black" d="M313.14,-103.85C312.05,-92.51 310.58,-77.22 309.24,-63.3"/>
<polygon fill="black" stroke="black" points="312.69,-62.63 308.25,-53.01 305.72,-63.3 312.69,-62.63"/>
<text text-anchor="middle" x="320.29" y="-74.8" font-family="Times,serif" font-size="14.00">No</text>
</g>
<!-- 18 -->
<g id="node19" class="node">
<title>18</title>
<polygon fill="none" stroke="red" points="445.79,-53 365.79,-53 365.79,0 445.79,0 445.79,-53"/>
<text text-anchor="middle" x="405.79" y="-37.8" font-family="Times,serif" font-size="14.00">val = 0.000</text>
<text text-anchor="middle" x="405.79" y="-22.8" font-family="Times,serif" font-size="14.00">val = 0.000</text>
<text text-anchor="middle" x="405.79" y="-7.8" font-family="Times,serif" font-size="14.00">val = 0.000</text>
</g>
<!-- 8&#45;&gt;18 -->
<g id="edge18" class="edge">
<title>8&#45;&gt;18</title>
<path fill="none" stroke="black" d="M331.48,-103.85C343.28,-91.73 359.47,-75.1 373.72,-60.45"/>
<polygon fill="black" stroke="black" points="376.5,-62.61 380.97,-53.01 371.48,-57.73 376.5,-62.61"/>
<text text-anchor="middle" x="374.29" y="-74.8" font-family="Times,serif" font-size="14.00">Yes</text>
</g>
<!-- 19 -->
<g id="node20" class="node">
<title>19</title>
<polygon fill="none" stroke="red" points="559.79,-53 475.79,-53 475.79,0 559.79,0 559.79,-53"/>
<text text-anchor="middle" x="517.79" y="-37.8" font-family="Times,serif" font-size="14.00">val = &#45;0.011</text>
<text text-anchor="middle" x="517.79" y="-22.8" font-family="Times,serif" font-size="14.00">val = 0.054</text>
<text text-anchor="middle" x="517.79" y="-7.8" font-family="Times,serif" font-size="14.00">val = &#45;0.043</text>
</g>
<!-- 9&#45;&gt;19 -->
<g id="edge19" class="edge">
<title>9&#45;&gt;19</title>
<path fill="none" stroke="black" d="M528.41,-103.85C526.83,-92.51 524.7,-77.22 522.77,-63.3"/>
<polygon fill="black" stroke="black" points="526.18,-62.43 521.34,-53.01 519.25,-63.39 526.18,-62.43"/>
<text text-anchor="middle" x="535.29" y="-74.8" font-family="Times,serif" font-size="14.00">No</text>
</g>
<!-- 20 -->
<g id="node21" class="node">
<title>20</title>
<polygon fill="none" stroke="red" points="661.79,-53 577.79,-53 577.79,0 661.79,0 661.79,-53"/>
<text text-anchor="middle" x="619.79" y="-37.8" font-family="Times,serif" font-size="14.00">val = &#45;0.064</text>
<text text-anchor="middle" x="619.79" y="-22.8" font-family="Times,serif" font-size="14.00">val = 0.179</text>
<text text-anchor="middle" x="619.79" y="-7.8" font-family="Times,serif" font-size="14.00">val = &#45;0.115</text>
</g>
<!-- 9&#45;&gt;20 -->
<g id="edge20" class="edge">
<title>9&#45;&gt;20</title>
<path fill="none" stroke="black" d="M547.12,-103.85C558.65,-91.73 574.48,-75.1 588.43,-60.45"/>
<polygon fill="black" stroke="black" points="591.15,-62.66 595.51,-53.01 586.08,-57.84 591.15,-62.66"/>
<text text-anchor="middle" x="589.29" y="-74.8" font-family="Times,serif" font-size="14.00">Yes</text>
</g>
<!-- 21 -->
<g id="node22" class="node">
<title>21</title>
<polygon fill="none" stroke="red" points="775.79,-53 691.79,-53 691.79,0 775.79,0 775.79,-53"/>
<text text-anchor="middle" x="733.79" y="-37.8" font-family="Times,serif" font-size="14.00">val = 0.056</text>
<text text-anchor="middle" x="733.79" y="-22.8" font-family="Times,serif" font-size="14.00">val = 0.000</text>
<text text-anchor="middle" x="733.79" y="-7.8" font-family="Times,serif" font-size="14.00">val = &#45;0.056</text>
</g>
<!-- 10&#45;&gt;21 -->
<g id="edge21" class="edge">
<title>10&#45;&gt;21</title>
<path fill="none" stroke="black" d="M744.41,-103.85C742.83,-92.51 740.7,-77.22 738.77,-63.3"/>
<polygon fill="black" stroke="black" points="742.18,-62.43 737.34,-53.01 735.25,-63.39 742.18,-62.43"/>
<text text-anchor="middle" x="751.29" y="-74.8" font-family="Times,serif" font-size="14.00">No</text>
</g>
<!-- 22 -->
<g id="node23" class="node">
<title>22</title>
<polygon fill="none" stroke="red" points="877.79,-53 793.79,-53 793.79,0 877.79,0 877.79,-53"/>
<text text-anchor="middle" x="835.79" y="-37.8" font-family="Times,serif" font-size="14.00">val = &#45;0.020</text>
<text text-anchor="middle" x="835.79" y="-22.8" font-family="Times,serif" font-size="14.00">val = 0.124</text>
<text text-anchor="middle" x="835.79" y="-7.8" font-family="Times,serif" font-size="14.00">val = &#45;0.104</text>
</g>
<!-- 10&#45;&gt;22 -->
<g id="edge22" class="edge">
<title>10&#45;&gt;22</title>
<path fill="none" stroke="black" d="M763.12,-103.85C774.65,-91.73 790.48,-75.1 804.43,-60.45"/>
<polygon fill="black" stroke="black" points="807.15,-62.66 811.51,-53.01 802.08,-57.84 807.15,-62.66"/>
<text text-anchor="middle" x="805.29" y="-74.8" font-family="Times,serif" font-size="14.00">Yes</text>
</g>
<!-- 23 -->
<g id="node24" class="node">
<title>23</title>
<polygon fill="none" stroke="red" points="991.79,-53 907.79,-53 907.79,0 991.79,0 991.79,-53"/>
<text text-anchor="middle" x="949.79" y="-37.8" font-family="Times,serif" font-size="14.00">val = &#45;0.088</text>
<text text-anchor="middle" x="949.79" y="-22.8" font-family="Times,serif" font-size="14.00">val = &#45;0.014</text>
<text text-anchor="middle" x="949.79" y="-7.8" font-family="Times,serif" font-size="14.00">val = 0.102</text>
</g>
<!-- 11&#45;&gt;23 -->
<g id="edge23" class="edge">
<title>11&#45;&gt;23</title>
<path fill="none" stroke="black" d="M960.41,-103.85C958.83,-92.51 956.7,-77.22 954.77,-63.3"/>
<polygon fill="black" stroke="black" points="958.18,-62.43 953.34,-53.01 951.25,-63.39 958.18,-62.43"/>
<text text-anchor="middle" x="967.29" y="-74.8" font-family="Times,serif" font-size="14.00">No</text>
</g>
<!-- 24 -->
<g id="node25" class="node">
<title>24</title>
<polygon fill="none" stroke="red" points="1089.79,-53 1009.79,-53 1009.79,0 1089.79,0 1089.79,-53"/>
<text text-anchor="middle" x="1049.79" y="-37.8" font-family="Times,serif" font-size="14.00">val = 0.000</text>
<text text-anchor="middle" x="1049.79" y="-22.8" font-family="Times,serif" font-size="14.00">val = 0.000</text>
<text text-anchor="middle" x="1049.79" y="-7.8" font-family="Times,serif" font-size="14.00">val = 0.000</text>
</g>
<!-- 11&#45;&gt;24 -->
<g id="edge24" class="edge">
<title>11&#45;&gt;24</title>
<path fill="none" stroke="black" d="M978.75,-103.85C990.03,-91.73 1005.5,-75.1 1019.13,-60.45"/>
<polygon fill="black" stroke="black" points="1021.81,-62.71 1026.06,-53.01 1016.68,-57.94 1021.81,-62.71"/>
<text text-anchor="middle" x="1020.29" y="-74.8" font-family="Times,serif" font-size="14.00">Yes</text>
</g>
<!-- 25 -->
<g id="node26" class="node">
<title>25</title>
<polygon fill="none" stroke="red" points="1205.79,-53 1121.79,-53 1121.79,0 1205.79,0 1205.79,-53"/>
<text text-anchor="middle" x="1163.79" y="-37.8" font-family="Times,serif" font-size="14.00">val = 0.008</text>
<text text-anchor="middle" x="1163.79" y="-22.8" font-family="Times,serif" font-size="14.00">val = &#45;0.016</text>
<text text-anchor="middle" x="1163.79" y="-7.8" font-family="Times,serif" font-size="14.00">val = 0.008</text>
</g>
<!-- 12&#45;&gt;25 -->
<g id="edge25" class="edge">
<title>12&#45;&gt;25</title>
<path fill="none" stroke="black" d="M1176.04,-103.85C1174.2,-92.4 1171.72,-76.91 1169.47,-62.89"/>
<polygon fill="black" stroke="black" points="1172.92,-62.33 1167.88,-53.01 1166.01,-63.43 1172.92,-62.33"/>
<text text-anchor="middle" x="1182.29" y="-74.8" font-family="Times,serif" font-size="14.00">No</text>
</g>
<!-- 26 -->
<g id="node27" class="node">
<title>26</title>
<polygon fill="none" stroke="red" points="1303.79,-53 1223.79,-53 1223.79,0 1303.79,0 1303.79,-53"/>
<text text-anchor="middle" x="1263.79" y="-37.8" font-family="Times,serif" font-size="14.00">val = 0.000</text>
<text text-anchor="middle" x="1263.79" y="-22.8" font-family="Times,serif" font-size="14.00">val = 0.000</text>
<text text-anchor="middle" x="1263.79" y="-7.8" font-family="Times,serif" font-size="14.00">val = 0.000</text>
</g>
<!-- 12&#45;&gt;26 -->
<g id="edge26" class="edge">
<title>12&#45;&gt;26</title>
<path fill="none" stroke="black" d="M1194.38,-103.85C1205.4,-91.73 1220.52,-75.1 1233.84,-60.45"/>
<polygon fill="black" stroke="black" points="1236.47,-62.76 1240.6,-53.01 1231.29,-58.05 1236.47,-62.76"/>
<text text-anchor="middle" x="1235.29" y="-74.8" font-family="Times,serif" font-size="14.00">Yes</text>
</g>
<!-- 27 -->
<g id="node28" class="node">
<title>27</title>
<polygon fill="none" stroke="red" points="1420.79,-53 1336.79,-53 1336.79,0 1420.79,0 1420.79,-53"/>
<text text-anchor="middle" x="1378.79" y="-37.8" font-family="Times,serif" font-size="14.00">val = &#45;0.101</text>
<text text-anchor="middle" x="1378.79" y="-22.8" font-family="Times,serif" font-size="14.00">val = &#45;0.048</text>
<text text-anchor="middle" x="1378.79" y="-7.8" font-family="Times,serif" font-size="14.00">val = 0.149</text>
</g>
<!-- 13&#45;&gt;27 -->
<g id="edge27" class="edge">
<title>13&#45;&gt;27</title>
<path fill="none" stroke="black" d="M1391.86,-103.85C1389.9,-92.4 1387.25,-76.91 1384.85,-62.89"/>
<polygon fill="black" stroke="black" points="1388.29,-62.27 1383.16,-53.01 1381.39,-63.45 1388.29,-62.27"/>
<text text-anchor="middle" x="1397.29" y="-74.8" font-family="Times,serif" font-size="14.00">No</text>
</g>
<!-- 28 -->
<g id="node29" class="node">
<title>28</title>
<polygon fill="none" stroke="red" points="1522.79,-53 1438.79,-53 1438.79,0 1522.79,0 1522.79,-53"/>
<text text-anchor="middle" x="1480.79" y="-37.8" font-family="Times,serif" font-size="14.00">val = &#45;0.050</text>
<text text-anchor="middle" x="1480.79" y="-22.8" font-family="Times,serif" font-size="14.00">val = 0.100</text>
<text text-anchor="middle" x="1480.79" y="-7.8" font-family="Times,serif" font-size="14.00">val = &#45;0.050</text>
</g>
<!-- 13&#45;&gt;28 -->
<g id="edge28" class="edge">
<title>13&#45;&gt;28</title>
<path fill="none" stroke="black" d="M1410.56,-103.85C1421.71,-91.73 1437.01,-75.1 1450.48,-60.45"/>
<polygon fill="black" stroke="black" points="1453.14,-62.74 1457.33,-53.01 1447.98,-58 1453.14,-62.74"/>
<text text-anchor="middle" x="1451.29" y="-74.8" font-family="Times,serif" font-size="14.00">Yes</text>
</g>
<!-- 29 -->
<g id="node30" class="node">
<title>29</title>
<polygon fill="none" stroke="red" points="1638.79,-53 1554.79,-53 1554.79,0 1638.79,0 1638.79,-53"/>
<text text-anchor="middle" x="1596.79" y="-37.8" font-family="Times,serif" font-size="14.00">val = 0.013</text>
<text text-anchor="middle" x="1596.79" y="-22.8" font-family="Times,serif" font-size="14.00">val = &#45;0.025</text>
<text text-anchor="middle" x="1596.79" y="-7.8" font-family="Times,serif" font-size="14.00">val = 0.013</text>
</g>
<!-- 14&#45;&gt;29 -->
<g id="edge29" class="edge">
<title>14&#45;&gt;29</title>
<path fill="none" stroke="black" d="M1608.22,-103.85C1606.52,-92.51 1604.24,-77.22 1602.15,-63.3"/>
<polygon fill="black" stroke="black" points="1605.55,-62.38 1600.61,-53.01 1598.63,-63.41 1605.55,-62.38"/>
<text text-anchor="middle" x="1614.29" y="-74.8" font-family="Times,serif" font-size="14.00">No</text>
</g>
<!-- 30 -->
<g id="node31" class="node">
<title>30</title>
<polygon fill="none" stroke="red" points="1740.79,-53 1656.79,-53 1656.79,0 1740.79,0 1740.79,-53"/>
<text text-anchor="middle" x="1698.79" y="-37.8" font-family="Times,serif" font-size="14.00">val = 0.022</text>
<text text-anchor="middle" x="1698.79" y="-22.8" font-family="Times,serif" font-size="14.00">val = 0.022</text>
<text text-anchor="middle" x="1698.79" y="-7.8" font-family="Times,serif" font-size="14.00">val = &#45;0.043</text>
</g>
<!-- 14&#45;&gt;30 -->
<g id="edge30" class="edge">
<title>14&#45;&gt;30</title>
<path fill="none" stroke="black" d="M1626.93,-103.85C1638.34,-91.73 1653.99,-75.1 1667.78,-60.45"/>
<polygon fill="black" stroke="black" points="1670.48,-62.69 1674.78,-53.01 1665.38,-57.89 1670.48,-62.69"/>
<text text-anchor="middle" x="1668.29" y="-74.8" font-family="Times,serif" font-size="14.00">Yes</text>
</g>
</g>
</svg>
